<mxfile host="app.diagrams.net" modified="2023-05-24T12:49:31.669Z" agent="Mozilla/5.0 (Macintosh; Intel Mac OS X 10_15_7) AppleWebKit/537.36 (KHTML, like Gecko) Chrome/113.0.0.0 Safari/537.36" version="21.3.2" etag="eByfHfDdN1jQuQegarub" type="github">
  <diagram name="Page-1" id="YLD5zs4c8MMgnl5KSF6U">
    <mxGraphModel>
      <root>
        <mxCell id="0" />
        <mxCell id="1" parent="0" />
      </root>
    </mxGraphModel>
  </diagram>
</mxfile>
